<?xml version="1.0" encoding="utf-8"?>
<!-- Generator: Adobe Illustrator 16.0.0, SVG Export Plug-In . SVG Version: 6.00 Build 0)  -->
<!DOCTYPE svg PUBLIC "-//W3C//DTD SVG 1.1//EN" "http://www.w3.org/Graphics/SVG/1.1/DTD/svg11.dtd">
<svg version="1.1" id="Layer_1" xmlns="http://www.w3.org/2000/svg" xmlns:xlink="http://www.w3.org/1999/xlink" x="0px" y="0px"
	 width="36.579px" height="32.167px" viewBox="0 0 36.579 32.167" enable-background="new 0 0 36.579 32.167" xml:space="preserve">
<g>
	<g>
		<g>
			<path fill="#FFFFFF" d="M-121.793,37.857c0.023,0,0.047-0.008,0.069-0.023c0.047-0.039,0.055-0.108,0.018-0.155
				c-2.106-2.648-1.955-4.834-1.895-5.292h1.669c0.062,0,0.111-0.047,0.111-0.11c0-0.061-0.049-0.109-0.111-0.109h-1.765
				c-0.051,0-0.097,0.035-0.108,0.088c-0.004,0.025-0.13,0.639,0.043,1.637c0.161,0.913,0.617,2.335,1.882,3.923
				C-121.858,37.841-121.827,37.857-121.793,37.857z"/>
		</g>
		<g>
			<path fill="#FFFFFF" d="M-116.066,37.816c-0.023,0-0.048-0.008-0.068-0.023c-0.049-0.04-0.057-0.108-0.019-0.155
				c2.104-2.646,1.955-4.835,1.895-5.29h-1.67c-0.062,0-0.111-0.05-0.111-0.11c0-0.062,0.049-0.11,0.111-0.11h1.764
				c0.052,0,0.097,0.036,0.108,0.085c0.005,0.027,0.132,0.643-0.043,1.639c-0.16,0.911-0.617,2.335-1.881,3.924
				C-116.001,37.802-116.034,37.816-116.066,37.816z"/>
		</g>
		<path fill="#FFFFFF" d="M-115.138,29.463h-3.241l-0.517,2.663l-0.517-2.663h-3.241c1.583,4.051,1.253,10.201,1.253,10.201h1.251
			l0.246-3.965l0.479,3.965h0.529h0.523l0.58-3.965l0.151,3.965h1.252C-116.389,39.665-116.721,33.514-115.138,29.463z"/>
		<path fill="#FFFFFF" d="M-121.942,32.126"/>
	</g>
	<rect x="-122.665" y="39.772" fill="#FFFFFF" width="7.539" height="1.078"/>
</g>
<g>
	<g>
		<path fill="#FFFFFF" d="M-81.979,201.109c-0.87,0.385-1.813,0.652-2.8,0.77c1.008-0.603,1.777-1.558,2.147-2.699
			c-0.943,0.561-1.986,0.967-3.104,1.183c-0.886-0.942-2.155-1.538-3.555-1.538c-2.688,0-4.873,2.185-4.873,4.876
			c0,0.383,0.045,0.752,0.124,1.109c-4.055-0.206-7.644-2.143-10.05-5.093c-0.422,0.719-0.662,1.56-0.662,2.453
			c0,1.689,0.864,3.185,2.168,4.053c-0.797-0.02-1.543-0.246-2.204-0.609v0.059c0,2.363,1.683,4.336,3.91,4.785
			c-0.407,0.108-0.842,0.167-1.285,0.167c-0.312,0-0.617-0.029-0.921-0.086c0.625,1.937,2.424,3.342,4.555,3.385
			c-1.667,1.306-3.771,2.082-6.055,2.082c-0.392,0-0.776-0.021-1.16-0.064c2.161,1.387,4.72,2.189,7.474,2.189
			c8.963,0,13.866-7.427,13.866-13.864l-0.014-0.632C-83.458,202.944-82.632,202.088-81.979,201.109L-81.979,201.109z
			 M-81.979,201.109"/>
	</g>
</g>
<path fill="#FFFFFF" d="M-60.006,208.475h-2.5v9.142h-3.422v-9.142h-2.288v-3.141l2.288-0.011l-0.008-1.85
	c0-2.565,0.697-4.136,3.728-4.136h2.519v3.151h-1.58c-1.171,0-1.237,0.443-1.237,1.263v1.571h2.836L-60.006,208.475z"/>
<g>
	<g>
		<path fill="#FFFFFF" d="M26.053,6.742H9.777c-0.447,0-0.807,0.359-0.807,0.807v16.277c0,0.441,0.36,0.807,0.807,0.807h16.276
			c0.443,0,0.807-0.365,0.807-0.807V7.548C26.86,7.101,26.496,6.742,26.053,6.742L26.053,6.742z M17.912,12.568
			c1.725,0,3.124,1.396,3.124,3.115c0,1.727-1.398,3.123-3.124,3.123c-1.72,0-3.117-1.396-3.117-3.123
			C14.795,13.964,16.192,12.568,17.912,12.568L17.912,12.568z M24.622,22.393H11.208v-7.822h1.467
			c-0.077,0.359-0.12,0.731-0.12,1.112c0,2.96,2.404,5.362,5.356,5.362c2.958,0,5.362-2.402,5.362-5.362
			c0-0.381-0.043-0.753-0.12-1.112h1.467V22.393z M24.622,12.332H21.27V8.981h3.352V12.332z M24.622,12.332"/>
	</g>
</g>
<g>
	<path fill="#FFFFFF" d="M-118.745,125.887h-3.69c-0.197,0-0.357,0.161-0.357,0.357v1.429c0,0.196,0.16,0.357,0.357,0.357h3.69
		c0.197,0,0.356-0.161,0.356-0.357v-1.429C-118.388,126.048-118.548,125.887-118.745,125.887L-118.745,125.887z M-119.102,127.316
		h-2.976v-0.714h2.976V127.316z M-117.081,122.793h-1.308v-2.738c0-0.198-0.16-0.355-0.356-0.355h-3.692
		c-0.197,0-0.356,0.157-0.356,0.355v2.738h-1.075c-0.061-0.668-0.623-1.19-1.304-1.19h-1.905c-0.723,0-1.31,0.588-1.31,1.311v6.428
		c0,0.721,0.587,1.308,1.31,1.308h1.905c0.682,0,1.244-0.524,1.304-1.19h6.787c0.197,0,0.357-0.159,0.357-0.357v-5.95
		C-116.723,122.953-116.883,122.793-117.081,122.793L-117.081,122.793z M-124.577,129.341c0,0.325-0.267,0.595-0.595,0.595h-1.905
		c-0.328,0-0.595-0.27-0.595-0.595v-6.428c0-0.33,0.267-0.598,0.595-0.598h1.905c0.328,0,0.595,0.268,0.595,0.598V129.341z
		 M-122.079,123.155v-0.004v-0.004v-2.734h2.977v4.047h-2.977V123.155z M-117.438,128.746h-6.425v-5.237h1.07v1.309
		c0,0.196,0.159,0.357,0.356,0.357h3.692c0.197,0,0.356-0.161,0.356-0.357v-1.309h0.95V128.746z M-117.438,128.746"/>
</g>
<g>
	<path fill="#FFFFFF" d="M-117.507,92.335h-5.178c-0.431,0-0.784,0.354-0.784,0.784v10.045c0,0.431,0.353,0.784,0.784,0.784h5.178
		c0.432,0,0.784-0.354,0.784-0.784V93.12C-116.723,92.689-117.076,92.335-117.507,92.335L-117.507,92.335z M-120.924,92.899h1.655
		c0.055,0,0.096,0.043,0.096,0.097c0,0.053-0.041,0.094-0.096,0.094h-1.655c-0.054,0-0.095-0.041-0.095-0.094
		C-121.019,92.942-120.978,92.899-120.924,92.899L-120.924,92.899z M-120.096,103.556c-0.218,0-0.393-0.173-0.393-0.392
		c0-0.218,0.175-0.393,0.393-0.393c0.218,0,0.393,0.175,0.393,0.393C-119.703,103.383-119.878,103.556-120.096,103.556
		L-120.096,103.556z M-117.269,102.497h-5.654v-8.918h5.654V102.497z M-117.269,102.497"/>
</g>
<g>
	<path fill="#FFFFFF" d="M-117.021,148.45c0.164,0,0.297,0.136,0.297,0.301v7.284c0,0.165-0.133,0.297-0.297,0.297h-9.839
		c-0.164,0-0.294-0.132-0.294-0.297v-7.284c0-0.165,0.13-0.301,0.294-0.301H-117.021z M-121.94,152.553l2.231-1.929l1.824-1.581
		h-8.112l1.825,1.581L-121.94,152.553z M-119.323,151.069l-2.421,2.098c-0.108,0.095-0.275,0.101-0.389,0.004l-2.425-2.102
		l-2.004-1.736v6.118l2.004-1.738l1.125-0.97c0.122-0.11,0.31-0.097,0.414,0.029c0.11,0.121,0.093,0.311-0.029,0.414l-1.124,0.975
		l-1.825,1.577h8.112l-1.824-1.577l-1.124-0.975c-0.121-0.104-0.134-0.293-0.029-0.414c0.109-0.126,0.294-0.14,0.415-0.029
		l1.124,0.97l2.008,1.738v-6.118L-119.323,151.069z M-119.323,151.069"/>
</g>
<g>
	<path fill="#FFFFFF" d="M-121.938,179.208c0.348,0,3.244-3.599,3.244-5.39c0-1.792-1.453-3.245-3.244-3.245
		c-1.792,0-3.244,1.453-3.244,3.245C-125.183,175.609-122.272,179.208-121.938,179.208L-121.938,179.208z M-124.035,173.704
		c0-1.156,0.939-2.096,2.096-2.096s2.096,0.939,2.096,2.096c0,1.157-0.939,2.097-2.096,2.097S-124.035,174.861-124.035,173.704
		L-124.035,173.704z M-124.035,173.704"/>
	<path fill="#FFFFFF" d="M-116.177,176.729c0-0.299-0.243-0.542-0.542-0.542h-1.975c-0.04,0-0.089-0.002-0.141,0.084
		c-0.104,0.175-0.096,0.161-0.193,0.322c-0.045,0.075,0.023,0.103,0.052,0.103h2.257c0.02,0,0.036,0.016,0.036,0.033l0.506,4.451
		c0,0.02-0.016,0.035-0.033,0.035h-11.456c-0.018,0-0.033-0.018-0.033-0.035l0.506-4.451c0-0.018,0.016-0.033,0.036-0.033h2.239
		c0.047,0,0.12-0.027,0.036-0.163c-0.097-0.159-0.06-0.112-0.162-0.289c-0.04-0.064-0.092-0.057-0.165-0.057h-1.949
		c-0.3,0-0.542,0.243-0.542,0.542l-0.509,4.451c0,0.301,0.243,0.542,0.542,0.542h11.456c0.299,0,0.542-0.241,0.542-0.542
		L-116.177,176.729z M-116.177,176.729"/>
</g>
</svg>
