<?xml version="1.0" encoding="utf-8"?>
<!-- Generator: Adobe Illustrator 16.0.0, SVG Export Plug-In . SVG Version: 6.00 Build 0)  -->
<!DOCTYPE svg PUBLIC "-//W3C//DTD SVG 1.1//EN" "http://www.w3.org/Graphics/SVG/1.1/DTD/svg11.dtd">
<svg version="1.1" id="Layer_1" xmlns="http://www.w3.org/2000/svg" xmlns:xlink="http://www.w3.org/1999/xlink" x="0px" y="0px"
	 width="36.579px" height="32.167px" viewBox="0 0 36.579 32.167" enable-background="new 0 0 36.579 32.167" xml:space="preserve">
<g>
	<path fill="#FFFFFF" d="M22.1,16.796h-3.69c-0.197,0-0.357,0.161-0.357,0.357v1.429c0,0.196,0.16,0.357,0.357,0.357h3.69
		c0.197,0,0.356-0.161,0.356-0.357v-1.429C22.457,16.957,22.297,16.796,22.1,16.796L22.1,16.796z M21.743,18.225h-2.976v-0.714
		h2.976V18.225z M23.764,13.702h-1.308v-2.738c0-0.198-0.16-0.355-0.356-0.355h-3.692c-0.197,0-0.356,0.157-0.356,0.355v2.738
		h-1.075c-0.061-0.668-0.623-1.19-1.304-1.19h-1.905c-0.723,0-1.31,0.588-1.31,1.311v6.428c0,0.721,0.587,1.308,1.31,1.308h1.905
		c0.682,0,1.244-0.524,1.304-1.19h6.787c0.197,0,0.357-0.159,0.357-0.357v-5.95C24.122,13.861,23.961,13.702,23.764,13.702
		L23.764,13.702z M16.268,20.25c0,0.325-0.267,0.595-0.595,0.595h-1.905c-0.328,0-0.595-0.27-0.595-0.595v-6.428
		c0-0.33,0.267-0.598,0.595-0.598h1.905c0.328,0,0.595,0.268,0.595,0.598V20.25z M18.766,14.063V14.06v-0.004v-2.734h2.977v4.047
		h-2.977V14.063z M23.407,19.654h-6.425v-5.237h1.07v1.309c0,0.196,0.159,0.357,0.356,0.357H22.1c0.197,0,0.356-0.161,0.356-0.357
		v-1.309h0.95V19.654z M23.407,19.654"/>
</g>
</svg>
