<?xml version="1.0" encoding="utf-8"?>
<!-- Generator: Adobe Illustrator 16.0.0, SVG Export Plug-In . SVG Version: 6.00 Build 0)  -->
<!DOCTYPE svg PUBLIC "-//W3C//DTD SVG 1.1//EN" "http://www.w3.org/Graphics/SVG/1.1/DTD/svg11.dtd">
<svg version="1.1" id="Layer_1" xmlns="http://www.w3.org/2000/svg" xmlns:xlink="http://www.w3.org/1999/xlink" x="0px" y="0px"
	 width="36.579px" height="32.167px" viewBox="0 0 36.579 32.167" enable-background="new 0 0 36.579 32.167" xml:space="preserve">
<g>
	<path fill="#FFFFFF" d="M20.878,10.276h-5.178c-0.431,0-0.784,0.354-0.784,0.784v10.045c0,0.431,0.353,0.784,0.784,0.784h5.178
		c0.432,0,0.784-0.354,0.784-0.784V11.061C21.663,10.63,21.31,10.276,20.878,10.276L20.878,10.276z M17.462,10.84h1.655
		c0.055,0,0.096,0.043,0.096,0.097c0,0.053-0.041,0.094-0.096,0.094h-1.655c-0.054,0-0.095-0.041-0.095-0.094
		C17.367,10.883,17.408,10.84,17.462,10.84L17.462,10.84z M18.29,21.497c-0.218,0-0.393-0.173-0.393-0.392
		c0-0.218,0.175-0.393,0.393-0.393c0.218,0,0.393,0.175,0.393,0.393C18.683,21.324,18.508,21.497,18.29,21.497L18.29,21.497z
		 M21.117,20.438h-5.654V11.52h5.654V20.438z M21.117,20.438"/>
</g>
</svg>
