<?xml version="1.0" encoding="utf-8"?>
<!-- Generator: Adobe Illustrator 16.0.0, SVG Export Plug-In . SVG Version: 6.00 Build 0)  -->
<!DOCTYPE svg PUBLIC "-//W3C//DTD SVG 1.1//EN" "http://www.w3.org/Graphics/SVG/1.1/DTD/svg11.dtd">
<svg version="1.1" id="Layer_1" xmlns="http://www.w3.org/2000/svg" xmlns:xlink="http://www.w3.org/1999/xlink" x="0px" y="0px"
	 width="36.579px" height="32.167px" viewBox="0 0 36.579 32.167" enable-background="new 0 0 36.579 32.167" xml:space="preserve">
<g>
	<g>
		<g>
			<path fill="#FFFFFF" d="M15.426,18.783c0.023,0,0.047-0.008,0.069-0.023c0.047-0.039,0.055-0.108,0.018-0.155
				c-2.106-2.648-1.955-4.834-1.895-5.292h1.669c0.062,0,0.111-0.047,0.111-0.11c0-0.061-0.049-0.109-0.111-0.109h-1.765
				c-0.051,0-0.097,0.035-0.108,0.088c-0.004,0.025-0.13,0.639,0.043,1.637c0.161,0.913,0.617,2.335,1.882,3.923
				C15.361,18.768,15.393,18.783,15.426,18.783z"/>
		</g>
		<g>
			<path fill="#FFFFFF" d="M21.153,18.742c-0.023,0-0.048-0.008-0.068-0.023c-0.049-0.04-0.057-0.108-0.019-0.155
				c2.104-2.646,1.955-4.835,1.895-5.29h-1.67c-0.062,0-0.111-0.05-0.111-0.11c0-0.062,0.049-0.11,0.111-0.11h1.764
				c0.052,0,0.097,0.036,0.108,0.085c0.005,0.027,0.132,0.643-0.043,1.639c-0.16,0.911-0.617,2.335-1.881,3.924
				C21.218,18.729,21.186,18.742,21.153,18.742z"/>
		</g>
		<path fill="#FFFFFF" d="M22.082,10.39H18.84l-0.517,2.663l-0.517-2.663h-3.241c1.583,4.051,1.253,10.201,1.253,10.201h1.251
			l0.246-3.965l0.479,3.965h0.529h0.523l0.58-3.965l0.151,3.965h1.252C20.83,20.591,20.498,14.44,22.082,10.39z"/>
		<path fill="#FFFFFF" d="M15.277,13.053"/>
	</g>
	<rect x="14.554" y="20.698" fill="#FFFFFF" width="7.539" height="1.078"/>
</g>
</svg>
