<?xml version="1.0" encoding="utf-8"?>
<!-- Generator: Adobe Illustrator 16.0.0, SVG Export Plug-In . SVG Version: 6.00 Build 0)  -->
<!DOCTYPE svg PUBLIC "-//W3C//DTD SVG 1.1//EN" "http://www.w3.org/Graphics/SVG/1.1/DTD/svg11.dtd">
<svg version="1.1" id="Layer_1" xmlns="http://www.w3.org/2000/svg" xmlns:xlink="http://www.w3.org/1999/xlink" x="0px" y="0px"
	 width="36.579px" height="32.167px" viewBox="0 0 36.579 32.167" enable-background="new 0 0 36.579 32.167" xml:space="preserve">
<g>
	<path fill="#FFFFFF" d="M18.29,19.144c0.348,0,3.244-3.599,3.244-5.39c0-1.792-1.453-3.245-3.244-3.245
		c-1.792,0-3.244,1.453-3.244,3.245C15.045,15.545,17.956,19.144,18.29,19.144L18.29,19.144z M16.193,13.64
		c0-1.156,0.939-2.096,2.096-2.096s2.096,0.939,2.096,2.096c0,1.157-0.939,2.097-2.096,2.097S16.193,14.797,16.193,13.64
		L16.193,13.64z M16.193,13.64"/>
	<path fill="#FFFFFF" d="M24.051,16.665c0-0.299-0.243-0.542-0.542-0.542h-1.975c-0.04,0-0.089-0.002-0.141,0.084
		c-0.104,0.175-0.096,0.161-0.193,0.322c-0.045,0.075,0.023,0.103,0.052,0.103h2.257c0.02,0,0.036,0.016,0.036,0.033l0.506,4.451
		c0,0.02-0.016,0.035-0.033,0.035H12.562c-0.018,0-0.033-0.018-0.033-0.035l0.506-4.451c0-0.018,0.016-0.033,0.036-0.033h2.239
		c0.047,0,0.12-0.027,0.036-0.163c-0.097-0.159-0.06-0.112-0.162-0.289c-0.04-0.064-0.092-0.057-0.165-0.057H13.07
		c-0.3,0-0.542,0.243-0.542,0.542l-0.509,4.451c0,0.301,0.243,0.542,0.542,0.542h11.456c0.299,0,0.542-0.241,0.542-0.542
		L24.051,16.665z M24.051,16.665"/>
</g>
</svg>
