<?xml version="1.0" encoding="utf-8"?>
<!-- Generator: Adobe Illustrator 16.0.0, SVG Export Plug-In . SVG Version: 6.00 Build 0)  -->
<!DOCTYPE svg PUBLIC "-//W3C//DTD SVG 1.1//EN" "http://www.w3.org/Graphics/SVG/1.1/DTD/svg11.dtd">
<svg version="1.1" id="Layer_1" xmlns="http://www.w3.org/2000/svg" xmlns:xlink="http://www.w3.org/1999/xlink" x="0px" y="0px"
	 width="36.579px" height="32.167px" viewBox="0 0 36.579 32.167" enable-background="new 0 0 36.579 32.167" xml:space="preserve">
<g>
	<path fill="#FFFFFF" d="M23.208,12.143c0.164,0,0.297,0.136,0.297,0.301v7.284c0,0.165-0.133,0.297-0.297,0.297h-9.839
		c-0.164,0-0.294-0.132-0.294-0.297v-7.284c0-0.165,0.13-0.301,0.294-0.301H23.208z M18.288,16.246l2.231-1.929l1.824-1.581h-8.112
		l1.825,1.581L18.288,16.246z M20.905,14.762l-2.421,2.098c-0.108,0.095-0.275,0.101-0.389,0.004l-2.425-2.102l-2.004-1.736v6.118
		l2.004-1.738l1.125-0.97c0.122-0.11,0.31-0.097,0.414,0.029c0.11,0.121,0.093,0.311-0.029,0.414l-1.124,0.975l-1.825,1.577h8.112
		l-1.824-1.577l-1.124-0.975c-0.121-0.104-0.134-0.293-0.029-0.414c0.109-0.126,0.294-0.14,0.415-0.029l1.124,0.97l2.008,1.738
		v-6.118L20.905,14.762z M20.905,14.762"/>
</g>
</svg>
