<?xml version="1.0" encoding="utf-8"?>
<!-- Generator: Adobe Illustrator 16.0.0, SVG Export Plug-In . SVG Version: 6.00 Build 0)  -->
<!DOCTYPE svg PUBLIC "-//W3C//DTD SVG 1.1//EN" "http://www.w3.org/Graphics/SVG/1.1/DTD/svg11.dtd">
<svg version="1.1" id="Layer_1" xmlns="http://www.w3.org/2000/svg" xmlns:xlink="http://www.w3.org/1999/xlink" x="0px" y="0px"
	 width="36.579px" height="32.167px" viewBox="0 0 36.579 32.167" enable-background="new 0 0 36.579 32.167" xml:space="preserve">
<g>
	<g>
		<path fill="#FFFFFF" d="M30.171,8.716c-0.87,0.385-1.813,0.652-2.8,0.77c1.008-0.603,1.777-1.558,2.147-2.699
			c-0.943,0.561-1.986,0.967-3.104,1.183c-0.886-0.942-2.155-1.538-3.555-1.538c-2.688,0-4.873,2.185-4.873,4.876
			c0,0.383,0.045,0.752,0.124,1.109c-4.055-0.206-7.644-2.143-10.05-5.093C7.64,8.042,7.4,8.883,7.4,9.776
			c0,1.689,0.864,3.185,2.168,4.053c-0.797-0.02-1.543-0.246-2.204-0.609v0.059c0,2.363,1.683,4.336,3.91,4.785
			c-0.407,0.108-0.842,0.167-1.285,0.167c-0.312,0-0.617-0.029-0.921-0.086c0.625,1.937,2.424,3.342,4.555,3.385
			c-1.667,1.306-3.771,2.082-6.055,2.082c-0.392,0-0.776-0.021-1.16-0.064c2.161,1.387,4.72,2.189,7.474,2.189
			c8.963,0,13.866-7.427,13.866-13.864l-0.014-0.632C28.693,10.551,29.519,9.695,30.171,8.716L30.171,8.716z M30.171,8.716"/>
	</g>
</g>
</svg>
